<svg width="458" height="312" viewBox="0 0 458 312" fill="none" xmlns="http://www.w3.org/2000/svg">
<g clip-path="url(#clip0)">
<path d="M82.85 293.163C128.602 293.09 165.687 290.623 165.683 287.652C165.678 284.682 128.585 282.333 82.8327 282.407C37.0807 282.48 -0.00478291 284.948 -1.04752e-05 287.918C0.00476196 290.888 37.098 293.237 82.85 293.163Z" fill="#E6E6E6"/>
<path d="M258.082 222.69C294.006 222.632 323.125 220.695 323.121 218.363C323.117 216.031 293.992 214.187 258.068 214.244C222.144 214.302 193.025 216.239 193.028 218.571C193.032 220.904 222.157 222.748 258.082 222.69Z" fill="#E6E6E6"/>
<path d="M375.835 295.789C421.226 295.717 458.013 289.162 458 281.149C457.987 273.137 421.18 266.7 375.788 266.773C330.397 266.846 293.61 273.4 293.623 281.413C293.636 289.426 330.443 295.862 375.835 295.789Z" fill="#E6E6E6"/>
<path d="M95.1334 141.343L104.461 138.749C104.461 138.749 108.115 138.02 105.883 130.892C103.65 123.764 99.2221 125.759 99.2221 125.759L90.9473 128.16L87.6803 129.168L92.2771 135.61L92.6624 139.904L95.1334 141.343Z" fill="#3F3D56"/>
<path d="M77.1088 122.509L74.1823 134.187L89.1778 148.704L90.467 149.027L93.9061 148.062L96.8331 136.385L93.8683 133.271L96.8985 132.477L90.432 126.206L87.0578 126.914L84.351 124.229L86.1776 123.5L86.3503 122.813L84.1372 121.073L77.1088 122.509Z" fill="#3F3D56"/>
<path d="M91.1583 138.98L89.2211 146.708L80.2841 138.268L82.522 130.433L91.1583 138.98Z" fill="white"/>
<path d="M77.1088 122.509L76.6985 124.147L91.6096 138.637L92.8988 138.959L96.2311 138.059L96.4144 138.055L96.833 136.385L93.8683 133.271L96.8984 132.477L90.4319 126.206L87.0578 126.914L84.3509 124.229L86.1776 123.5L86.3503 122.813L84.1372 121.073L77.1088 122.509Z" stroke="#3F3D56" stroke-miterlimit="10"/>
<path d="M85.2005 122.662C85.3134 122.212 84.8661 121.712 84.2015 121.546C83.5369 121.379 82.9066 121.61 82.7937 122.06C82.6808 122.511 83.128 123.011 83.7926 123.177C84.4572 123.343 85.0875 123.113 85.2005 122.662Z" fill="white"/>
<path d="M94.6735 135.16C94.7864 134.71 94.3392 134.21 93.6746 134.043C93.0099 133.877 92.3796 134.108 92.2667 134.558C92.1538 135.009 92.601 135.509 93.2657 135.675C93.9303 135.841 94.5606 135.611 94.6735 135.16Z" fill="white"/>
<path d="M101.331 155.89L99.2968 148.981C99.2968 148.981 104.586 136.383 98.4831 135.163C92.3805 133.944 91.9736 146.949 91.9736 146.949L94.4147 154.671L101.331 155.89Z" fill="#FFB6B6"/>
<path d="M63.5632 142.457C72.4886 142.457 79.7241 135.229 79.7241 126.313C79.7241 117.397 72.4886 110.169 63.5632 110.169C54.6378 110.169 47.4023 117.397 47.4023 126.313C47.4023 135.229 54.6378 142.457 63.5632 142.457Z" fill="#FFB6B6"/>
<path d="M68.7917 137.708C68.7917 137.708 69.7423 149.579 72.1189 150.528C74.4955 151.478 50.8706 158.126 50.8706 158.126L58.0004 150.054C58.0004 150.054 55.0074 137.708 51.6802 134.86L68.7917 137.708Z" fill="#FFB6B6"/>
<path d="M91.5668 152.233L98.0763 151.42C98.0763 151.42 105.806 155.484 105.806 160.767C105.806 166.05 110.282 174.585 110.282 174.585C110.282 174.585 113.536 185.964 106.213 186.777C98.8899 187.59 92.3805 174.585 92.3805 174.585L91.5668 152.233Z" fill="white"/>
<path d="M95.2283 216.852L108.351 207.821C110.426 206.366 112.89 205.565 115.425 205.519C117.96 205.473 120.45 206.185 122.577 207.564C124.385 208.769 125.741 210.349 125.741 212.381C125.741 218.477 112.316 232.701 112.316 232.701C112.316 232.701 102.145 255.054 92.3805 255.867C85.9574 256.449 79.573 257.399 73.2589 258.712C73.2589 258.712 77.7342 274.968 75.2931 279.438C72.8521 283.909 63.4947 289.192 62.681 288.786C61.8673 288.379 50.4758 277.813 45.5937 262.776C40.7116 247.739 37.4568 236.359 41.9321 235.546C46.4073 234.733 95.2283 216.852 95.2283 216.852Z" fill="#2F2E41"/>
<path d="M124.521 211.162C124.521 211.162 127.369 210.755 126.962 217.664C126.555 224.573 125.335 249.364 123.3 254.241C121.266 259.118 120.859 264.808 121.673 266.84C122.487 268.872 124.114 272.123 121.266 272.53C118.418 272.936 106.62 271.31 105.399 270.904C104.179 270.498 110.282 254.648 109.468 253.835C108.654 253.022 107.841 233.921 107.841 233.921L124.521 211.162Z" fill="#2F2E41"/>
<path d="M120.453 271.31C120.453 271.31 127.369 269.278 128.183 273.749C128.183 273.749 129.403 280.658 124.114 283.096C120.701 284.708 117.434 286.611 114.35 288.786C114.35 288.786 105.806 292.037 105.399 287.973C104.992 283.909 107.027 269.278 107.027 269.278L120.453 271.31Z" fill="#2F2E41"/>
<path d="M74.4794 276.187L61.4605 265.621C61.4605 265.621 63.9015 278.626 60.6468 281.064L59.1601 285.406L63.3233 288.808C63.3233 288.808 76.1068 286.754 74.4794 276.187Z" fill="#2F2E41"/>
<path d="M56.1715 258.305C56.1715 258.305 64.7152 260.744 63.4947 269.278C62.2742 277.813 60.7093 287.085 60.7093 287.085C60.7093 287.085 60.24 309.919 54.1373 311.545C48.0347 313.17 46.4073 309.919 46.4073 309.919C46.4073 309.919 39.4704 292.076 41.5252 286.754C44.0125 280.312 47.5967 273.079 46.4073 270.904C45.2371 268.764 47.221 257.086 56.1715 258.305Z" fill="#2F2E41"/>
<path d="M51.2894 146.136C51.2894 146.136 54.5442 146.543 59.8331 147.356C65.1221 148.168 68.7837 144.104 71.6316 144.917C74.4794 145.73 98.0763 151.42 98.0763 151.42L96.0352 167.051C95.3663 172.174 93.7047 177.08 91.5765 181.789C88.1448 189.382 93.2294 213.168 98.0762 217.664C102.292 221.576 107.84 222.541 101.738 229.45C95.6352 236.359 85.0573 242.455 63.4947 240.423C41.9321 238.391 39.0842 238.798 39.0842 235.546C39.0842 232.295 46.7579 189.622 44.3168 187.184C41.8758 184.745 40.6552 182.307 40.6552 181.088C40.6552 180.273 38.1102 171.104 36.4226 165.114C35.1967 160.886 35.6529 156.349 37.6959 152.449C38.4596 151.021 39.333 149.925 40.2484 149.794C43.0963 149.388 41.1184 147.356 43.1526 147.356C45.1868 147.356 46.4073 147.762 47.6279 147.356L51.2894 146.136Z" fill="white"/>
<path d="M82.4723 115.424C82.4723 115.424 82.1043 95.4743 62.5018 104.918C62.5018 104.918 47.429 104.387 45.3196 123.433L43.2802 143.373L45.4649 141.732L46.9286 143.987L50.9208 144.394L52.0863 140.887L53.4677 144.735L85.4533 143.237C85.4533 143.237 70.1052 136.973 67.6775 122.058L70.7853 124.501L82.4723 115.424Z" fill="#2F2E41"/>
<path d="M45.6307 115.599C50.0556 115.599 53.6426 112.016 53.6426 107.596C53.6426 103.175 50.0556 99.5922 45.6307 99.5922C41.2058 99.5922 37.6188 103.175 37.6188 107.596C37.6188 112.016 41.2058 115.599 45.6307 115.599Z" fill="#2F2E41"/>
<path d="M53.5124 104.456C53.086 102.466 51.9164 100.713 50.2417 99.5548C48.567 98.3964 46.5133 97.9193 44.4987 98.2206C44.6594 98.1758 44.8178 98.1267 44.9831 98.0914C46.0121 97.8719 47.0742 97.857 48.1089 98.0475C49.1436 98.238 50.1307 98.6302 51.0136 99.2018C51.8966 99.7733 52.6582 100.513 53.255 101.379C53.8518 102.244 54.2721 103.219 54.4918 104.247C54.7116 105.274 54.7265 106.335 54.5358 107.369C54.3451 108.403 53.9524 109.389 53.3803 110.271C52.8081 111.153 52.0676 111.913 51.2011 112.51C50.3346 113.106 49.359 113.526 48.3301 113.745C48.1648 113.78 48.0001 113.8 47.8351 113.825C49.7971 113.278 51.4765 112.004 52.5313 110.263C53.5861 108.523 53.937 106.446 53.5124 104.456Z" fill="#2F2E41"/>
<path d="M249.546 48.3736C256.84 48.3736 262.752 42.4672 262.752 35.1813C262.752 27.8954 256.84 21.989 249.546 21.989C242.252 21.989 236.34 27.8954 236.34 35.1813C236.34 42.4672 242.252 48.3736 249.546 48.3736Z" fill="#2F2E41"/>
<path d="M256.499 43.9641C256.499 43.9641 256.3 52.1073 257.096 52.3059C257.891 52.5045 246.16 55.6824 246.16 55.6824L244.967 44.5599L256.499 43.9641Z" fill="#FFB8B8"/>
<path d="M163.846 113.479C163.846 113.479 155.098 113.479 154.899 112.486C154.7 111.493 152.91 120.63 152.91 120.63L156.489 121.821C156.489 121.821 163.249 118.842 163.846 118.842C164.442 118.842 163.846 113.479 163.846 113.479Z" fill="#FFB8B8"/>
<path d="M154.302 117.055C154.302 117.055 155.893 111.692 157.881 111.493C157.881 111.493 151.121 107.124 150.922 105.733C150.723 104.343 148.337 100.768 147.343 101.96C146.349 103.151 146.349 122.02 148.139 124.006C149.928 125.992 157.881 121.214 157.881 121.214C157.881 121.214 152.91 119.041 154.302 117.055Z" fill="#2F2E41"/>
<path d="M262.265 193.125L263.856 201.665L256.499 202.856V193.125H262.265Z" fill="#FFB8B8"/>
<path d="M262.265 200.672C262.265 200.672 263.458 196.898 264.254 197.494C265.049 198.09 266.242 201.863 266.043 202.856C265.844 203.85 264.452 211.596 265.049 212.986C265.645 214.376 262.067 221.526 257.493 220.93C252.92 220.335 253.318 216.362 253.318 216.362L254.909 210.205L255.505 200.473C255.505 200.473 260.675 199.679 262.265 200.672Z" fill="#2F2E41"/>
<path d="M254.166 26.7554C257.184 26.7554 259.631 24.3114 259.631 21.2965C259.631 18.2816 257.184 15.8376 254.166 15.8376C251.148 15.8376 248.701 18.2816 248.701 21.2965C248.701 24.3114 251.148 26.7554 254.166 26.7554Z" fill="#2F2E41"/>
<path d="M261.452 18.3396C261.452 16.9903 260.952 15.6888 260.048 14.6862C259.144 13.6836 257.9 13.0509 256.557 12.9102C256.746 12.8906 256.936 12.8807 257.126 12.8807C258.574 12.882 259.963 13.4578 260.987 14.4813C262.011 15.5049 262.586 16.8927 262.586 18.3396C262.586 19.7865 262.011 21.1743 260.987 22.1979C259.963 23.2214 258.574 23.7972 257.126 23.7985C256.936 23.7984 256.746 23.7886 256.557 23.769C257.9 23.6283 259.144 22.9956 260.048 21.993C260.952 20.9904 261.452 19.6889 261.452 18.3396Z" fill="#2F2E41"/>
<path d="M249.54 49.5253C254.152 49.5253 257.891 45.7905 257.891 41.1834C257.891 36.5764 254.152 32.8416 249.54 32.8416C244.928 32.8416 241.19 36.5764 241.19 41.1834C241.19 45.7905 244.928 49.5253 249.54 49.5253Z" fill="#FFB8B8"/>
<path d="M266.043 99.1791C266.043 99.1791 265.645 109.11 264.055 114.274C262.464 119.438 256.73 156.215 257.923 158.995C259.116 161.776 265.248 192.528 263.856 194.316C262.464 196.104 255.903 195.508 255.903 195.508L246.987 158.201C246.987 158.201 248.745 117.054 234.032 116.061C219.319 115.068 195.261 114.473 195.261 114.473C195.261 114.473 179.752 119.041 172.793 118.842C165.834 118.643 161.858 120.63 161.858 120.63L160.665 112.486L191.483 105.733C191.483 105.733 219.716 96.0013 235.225 98.5833C250.733 101.165 266.043 99.1791 266.043 99.1791Z" fill="#2F2E41"/>
<path d="M254.909 49.7239C254.909 49.7239 257.295 48.3336 257.891 49.7239C258.488 51.1142 262.663 52.3059 264.254 51.1142C265.844 49.9225 269.821 51.5114 269.821 51.5114L274.195 64.4215C274.195 64.4215 272.008 75.5439 270.02 81.701C268.031 87.8581 267.236 100.569 268.031 101.761C268.827 102.953 252.125 107.72 243.973 104.74C235.821 101.761 234.032 98.3847 234.032 98.3847C234.032 98.3847 242.979 85.6733 239.997 79.7149C237.014 73.7564 239.4 67.0035 239.4 67.0035L238.207 60.2505L244.967 56.4768C244.967 56.4768 245.365 52.9018 246.956 52.9018C248.546 52.9018 254.909 49.7239 254.909 49.7239Z" fill="#D0CDE1"/>
<path d="M241.19 60.4491H238.207C237.38 61.2225 236.763 62.1935 236.415 63.2706C236.068 64.3478 236 65.4957 236.219 66.6062C237.014 70.3799 240.601 82.8908 240.601 82.8908L243.576 75.1467L241.19 60.4491Z" fill="#D0CDE1"/>
<path d="M232.625 92.3457C232.625 92.3457 226.675 98.7819 231.05 102.158C235.424 105.535 236.502 94.4124 236.502 94.4124L232.625 92.3457Z" fill="#FFB8B8"/>
<path d="M241.19 78.9203L239.798 84.4816L237.412 88.8511C237.412 88.8511 229.26 94.2138 229.26 96.1999C229.26 96.1999 232.839 91.6318 237.412 96.1999L241.488 86.3684L241.19 78.9203Z" fill="#D0CDE1"/>
<path d="M248.01 37.8431C253.04 37.8431 257.118 35.3991 257.118 32.3842C257.118 29.3693 253.04 26.9253 248.01 26.9253C242.98 26.9253 238.902 29.3693 238.902 32.3842C238.902 35.3991 242.98 37.8431 248.01 37.8431Z" fill="#2F2E41"/>
<path d="M266.043 32.8416C266.043 32.8416 259.681 29.2665 257.096 31.8485C254.511 34.4305 264.85 38.4028 264.85 38.4028L266.043 32.8416Z" fill="#FFB8B8"/>
<path d="M268.429 52.5045L269.821 51.5114C269.821 51.5114 271.411 49.128 272.803 49.9225C274.195 50.717 282.347 46.9433 282.347 46.9433C282.347 46.9433 279.364 48.3336 279.364 45.9502C279.364 43.5668 278.967 43.964 276.979 43.964C274.99 43.964 274.99 44.9571 274.195 43.5668C273.4 42.1765 273.797 41.382 272.405 42.1765C271.014 42.9709 269.423 42.3751 269.025 41.7792C268.628 41.1834 261.47 40.1903 261.47 40.1903C261.47 40.1903 264.254 32.0471 264.85 31.4512C265.446 30.8554 280.756 37.6083 280.756 37.6083C280.756 37.6083 300.042 42.971 295.072 49.128C290.101 55.2851 272.207 64.6201 272.207 64.6201L268.429 52.5045Z" fill="#D0CDE1"/>
<path d="M305.643 0L341.513 0.222553C341.513 0.222553 400.554 31.6032 359.114 96.5902C359.114 96.5902 342.182 92.5841 323.467 106.383C323.467 106.383 312.55 2.44814 305.643 0Z" fill="white"/>
<path opacity="0.2" d="M316.313 0.325293C322.74 27.1404 330.004 96.3017 330.004 96.3017C346.725 83.9737 362.011 85.8564 365.082 86.3979C363.271 89.9802 361.279 93.4685 359.114 96.8493C359.114 96.8493 342.182 92.8432 323.467 106.642C323.467 106.642 312.55 2.70723 305.643 0.259094L316.313 0.325293Z" fill="black"/>
<path d="M359.337 33.6061L362.456 48.7402L401.655 41.6227L401.668 41.6181L402.559 23.8136H394.984L359.337 33.6061Z" fill="#3F3D56"/>
<path opacity="0.2" d="M395.617 23.8136L401.655 41.6227L401.668 41.6181L402.559 23.8136H395.617Z" fill="black"/>
<path d="M360.674 50.5207C363.135 50.5207 365.13 45.9371 365.13 40.283C365.13 34.6289 363.135 30.0453 360.674 30.0453C358.213 30.0453 356.218 34.6289 356.218 40.283C356.218 45.9371 358.213 50.5207 360.674 50.5207Z" fill="#3F3D56"/>
<path d="M383.844 256.634C383.665 256.634 383.488 256.599 383.323 256.531C383.158 256.463 383.008 256.362 382.881 256.236C382.755 256.11 382.655 255.96 382.586 255.795C382.518 255.63 382.482 255.453 382.482 255.274V40.2831C382.482 39.9222 382.626 39.5762 382.881 39.321C383.137 39.0659 383.483 38.9225 383.844 38.9225C384.206 38.9225 384.552 39.0659 384.807 39.321C385.063 39.5762 385.206 39.9222 385.206 40.2831V255.274C385.206 255.453 385.171 255.629 385.103 255.794C385.034 255.96 384.934 256.11 384.808 256.236C384.681 256.362 384.531 256.462 384.366 256.531C384.2 256.599 384.023 256.634 383.845 256.634H383.844Z" fill="#3F3D56"/>
<path d="M365.131 294.47C364.93 294.47 364.731 294.426 364.549 294.34C364.367 294.255 364.207 294.13 364.079 293.975C363.951 293.82 363.859 293.639 363.809 293.444C363.76 293.249 363.754 293.046 363.793 292.849L381.179 203.813L335.523 273.38C335.425 273.529 335.298 273.658 335.151 273.759C335.003 273.86 334.836 273.931 334.661 273.967C334.486 274.004 334.305 274.006 334.129 273.972C333.953 273.939 333.785 273.871 333.636 273.773C333.486 273.675 333.357 273.548 333.256 273.401C333.156 273.253 333.085 273.086 333.049 272.911C333.013 272.736 333.011 272.555 333.045 272.38C333.078 272.204 333.146 272.037 333.245 271.887V271.887L382.705 196.524C382.878 196.26 383.138 196.065 383.439 195.971C383.741 195.878 384.065 195.891 384.358 196.01C384.65 196.129 384.892 196.346 385.042 196.623C385.192 196.9 385.242 197.221 385.181 197.531L366.467 293.369C366.406 293.679 366.24 293.958 365.996 294.158C365.753 294.359 365.447 294.469 365.131 294.47V294.47Z" fill="#3F3D56"/>
<path d="M435.534 277.555C435.308 277.555 435.085 277.499 434.886 277.392C434.687 277.284 434.518 277.129 434.394 276.94L382.705 198.155C382.607 198.005 382.539 197.838 382.505 197.662C382.472 197.487 382.473 197.306 382.51 197.131C382.546 196.956 382.616 196.79 382.717 196.642C382.818 196.494 382.947 196.367 383.097 196.269C383.246 196.171 383.414 196.104 383.59 196.07C383.766 196.037 383.947 196.039 384.122 196.075C384.297 196.112 384.463 196.183 384.611 196.284C384.759 196.385 384.885 196.514 384.983 196.663V196.663L436.672 275.449C436.806 275.654 436.883 275.891 436.893 276.136C436.904 276.381 436.848 276.625 436.731 276.84C436.615 277.056 436.442 277.237 436.231 277.362C436.02 277.488 435.779 277.555 435.534 277.555V277.555Z" fill="#3F3D56"/>
</g>
<defs>
<clipPath id="clip0">
<rect width="458" height="312" fill="white"/>
</clipPath>
</defs>
</svg>
